<?xml version="1.0" standalone="no"?>
<!DOCTYPE svg PUBLIC "-//W3C//DTD SVG 20010904//EN"
 "http://www.w3.org/TR/2001/REC-SVG-20010904/DTD/svg10.dtd">
<svg version="1.0" xmlns="http://www.w3.org/2000/svg"
 width="1080.000000pt" height="1080.000000pt" viewBox="0 0 1080.000000 1080.000000"
 preserveAspectRatio="xMidYMid meet">

<g transform="translate(0.000000,1080.000000) scale(0.100000,-0.100000)"
fill="#ffff" stroke="none">
<path d="M3273 8959 c-84 -16 -159 -76 -197 -158 l-21 -46 -3 -1612 -2 -1613
270 0 270 0 -2 1613 -3 1612 -27 50 c-61 116 -171 176 -285 154z"/>
<path d="M6550 8035 c-59 -18 -123 -73 -149 -128 -21 -43 -21 -47 -21 -1210
l0 -1167 270 0 270 0 0 1164 0 1164 -28 53 c-59 115 -203 166 -342 124z"/>
<path d="M2424 8019 c-61 -18 -127 -71 -156 -128 l-28 -53 0 -1154 0 -1154
270 0 270 0 0 1148 c0 1131 -1 1148 -21 1192 -55 123 -201 188 -335 149z"/>
<path d="M5710 7755 c-57 -18 -114 -65 -143 -118 l-22 -42 0 -1030 0 -1030
273 -3 272 -2 0 1017 c0 706 -3 1030 -11 1058 -15 54 -91 127 -154 149 -58 19
-153 20 -215 1z"/>
<path d="M4047 7642 c-64 -23 -115 -66 -138 -116 -18 -39 -19 -85 -19 -1018
l0 -978 270 0 270 0 0 986 c0 707 -3 991 -11 1007 -23 45 -84 98 -136 117 -67
25 -170 26 -236 2z"/>
<path d="M7367 7446 c-70 -26 -113 -62 -141 -117 l-26 -53 0 -873 0 -873 270
0 270 0 -2 883 -3 884 -30 48 c-45 72 -115 108 -219 112 -53 2 -94 -2 -119
-11z"/>
<path d="M1513 7060 c-68 -34 -95 -64 -112 -125 -7 -27 -11 -254 -11 -722 l0
-683 275 0 275 0 0 681 c0 478 -3 694 -11 726 -14 52 -56 100 -115 129 -29 14
-66 20 -139 22 -95 3 -103 2 -162 -28z"/>
<path d="M8220 6824 c-98 -19 -166 -64 -189 -127 -7 -19 -11 -220 -11 -598 l0
-569 270 0 270 0 0 559 c0 577 -1 594 -42 653 -30 43 -112 77 -198 82 -41 3
-86 2 -100 0z"/>
<path d="M4853 6713 c-29 -8 -69 -30 -90 -48 l-38 -33 -3 -551 -2 -551 275 0
275 0 -2 551 -3 551 -38 33 c-22 19 -62 39 -95 49 -73 20 -209 20 -279 -1z"/>
<path d="M9003 6490 c-64 -15 -107 -45 -130 -90 -23 -44 -23 -49 -23 -457 l0
-413 273 2 272 3 3 399 c1 266 -1 412 -9 439 -15 55 -56 91 -127 111 -60 17
-200 20 -259 6z"/>
<path d="M9766 6236 c-58 -22 -89 -48 -103 -87 -8 -23 -12 -127 -12 -326 l-1
-293 276 0 275 0 -3 308 c-3 346 -3 343 -82 385 -35 18 -60 22 -176 24 -99 2
-145 -1 -174 -11z"/>
<path d="M717 6146 c-56 -16 -97 -43 -114 -77 -9 -17 -13 -97 -13 -282 l0
-257 273 2 272 3 0 266 c0 303 3 293 -85 332 -58 27 -258 34 -333 13z"/>
<path d="M592 4991 c3 -269 3 -269 27 -295 44 -47 102 -61 246 -61 144 0 202
14 246 61 l24 26 0 266 0 267 -273 3 -273 2 3 -269z"/>
<path d="M1390 4579 c0 -482 3 -694 12 -726 24 -98 121 -154 263 -154 138 0
235 54 263 147 9 31 12 215 12 728 l0 686 -275 0 -275 0 0 -681z"/>
<path d="M2240 4107 l0 -1153 26 -52 c30 -60 71 -95 144 -123 128 -49 280 6
343 125 l22 41 3 1158 2 1157 -270 0 -270 0 0 -1153z"/>
<path d="M3050 3660 c0 -1586 0 -1600 20 -1654 40 -106 140 -178 249 -178 102
0 185 54 239 157 l27 50 3 1613 2 1612 -270 0 -270 0 0 -1600z"/>
<path d="M3890 4283 c0 -930 1 -980 19 -1019 68 -149 342 -183 463 -57 19 21
41 48 47 60 8 16 11 300 11 1007 l0 986 -270 0 -270 0 0 -977z"/>
<path d="M4722 4711 l3 -549 24 -26 c44 -47 123 -69 246 -69 134 -1 214 25
252 82 l23 34 0 538 0 539 -275 0 -275 0 2 -549z"/>
<path d="M5544 5247 c-2 -7 -3 -472 -2 -1032 l3 -1020 22 -42 c60 -112 219
-164 358 -117 63 22 139 95 154 149 8 28 11 352 11 1058 l0 1017 -270 0 c-212
0 -272 -3 -276 -13z"/>
<path d="M6380 4093 c0 -1163 0 -1167 21 -1210 91 -187 395 -190 491 -4 l28
53 0 1164 0 1164 -270 0 -270 0 0 -1167z"/>
<path d="M7202 4377 l3 -884 30 -48 c21 -33 47 -57 85 -79 51 -29 62 -31 150
-31 88 0 99 2 150 31 38 22 64 46 85 79 l30 48 3 884 2 883 -270 0 -270 0 2
-883z"/>
<path d="M8020 4690 c0 -629 -2 -610 63 -667 49 -43 104 -58 213 -57 78 0 98
4 147 28 59 29 86 58 105 115 9 24 12 197 12 592 l0 559 -270 0 -270 0 0 -570z"/>
<path d="M8852 4833 c3 -426 3 -428 26 -460 12 -17 43 -42 70 -55 42 -20 61
-23 172 -23 116 0 129 2 180 27 99 49 95 28 95 513 l0 420 -273 3 -273 2 3
-427z"/>
<path d="M9652 4952 c3 -347 2 -343 81 -384 38 -21 55 -23 192 -23 135 0 154
2 191 22 79 42 79 39 82 386 l3 307 -276 0 -276 0 3 -308z"/>
</g>
</svg>
